<?xml version="1.0" encoding="utf-8"?>
<!-- Generator: Adobe Illustrator 16.0.0, SVG Export Plug-In . SVG Version: 6.00 Build 0)  -->
<!DOCTYPE svg PUBLIC "-//W3C//DTD SVG 1.1//EN" "http://www.w3.org/Graphics/SVG/1.1/DTD/svg11.dtd">
<svg version="1.1" id="Layer_1" xmlns="http://www.w3.org/2000/svg" xmlns:xlink="http://www.w3.org/1999/xlink" x="0px" y="0px"
	 width="28.8px" height="36px" viewBox="0 0 28.8 36" enable-background="new 0 0 28.8 36" xml:space="preserve">
<path fill-rule="evenodd" clip-rule="evenodd" fill="#4D4D4D" d="M27.217,13.982l-8,7.999c-0.038,0.037-0.083,0.062-0.121,0.098
	c-0.059,0.065-0.114,0.136-0.176,0.199l-0.031-0.031c-1.772,1.469-4.52,1.539-6.193,0.146c-0.057-0.036-0.121-0.062-0.171-0.114
	l-0.101-0.102l-1.077-1.076l-0.74-0.739c-0.354-0.354-0.354-0.927,0-1.28c0.353-0.354,0.925-0.354,1.279,0l0.638,0.639l0.015-0.014
	c0.03,0.035,0.053,0.082,0.087,0.115l1.077,1.075c1,1.003,3.138,0.902,4.234-0.193l2.245-2.245l5.754-5.755
	c1.031-1.032,0.993-2.879-0.083-3.957l-2.354-2.354c-1.078-1.078-2.927-1.115-3.958-0.086L18.921,6.93l-1.919,1.918
	c-0.176,0.176-0.408,0.265-0.64,0.265c-0.232,0-0.462-0.089-0.639-0.265c-0.354-0.354-0.354-0.926,0-1.279l1.918-1.918l0.624-0.623
	c1.742-1.742,4.726-1.704,6.516,0.086l2.353,2.353C28.922,9.257,28.96,12.239,27.217,13.982z M17.641,14.603l0.64,0.642
	c0.354,0.353,0.354,0.925,0,1.278c-0.176,0.176-0.408,0.264-0.64,0.264c-0.23,0-0.463-0.087-0.639-0.264l-0.64-0.642l-1.279-1.278
	c-1.058-1.058-2.777-1.058-3.836,0l-8.313,8.314c-1.059,1.06-1.058,2.779,0,3.839l2.557,2.556c1.059,1.059,2.78,1.059,3.838,0
	l0.64-0.638l1.918-1.918c0.353-0.354,0.925-0.354,1.279,0c0.353,0.352,0.353,0.924,0,1.277l-1.919,1.919l-0.639,0.64
	c-1.763,1.762-4.633,1.764-6.396,0l-2.558-2.559c-1.763-1.764-1.763-4.631,0-6.394l8.314-8.314c1.764-1.764,4.631-1.764,6.394,0
	L17.641,14.603z"/>
</svg>
