<?xml version="1.0" encoding="utf-8"?>
<!-- Generator: Adobe Illustrator 16.0.0, SVG Export Plug-In . SVG Version: 6.00 Build 0)  -->
<!DOCTYPE svg PUBLIC "-//W3C//DTD SVG 1.1//EN" "http://www.w3.org/Graphics/SVG/1.1/DTD/svg11.dtd">
<svg version="1.1" id="Layer_1" xmlns="http://www.w3.org/2000/svg" xmlns:xlink="http://www.w3.org/1999/xlink" x="0px" y="0px"
	 width="35.998px" height="36px" viewBox="0 0 35.998 36" enable-background="new 0 0 35.998 36" xml:space="preserve">
<path fill="#999999" d="M17.999,31.5c-0.689,0-1.366-0.042-2.034-0.108L6.75,36v-7.967C2.638,25.147,0,20.721,0,15.75
	C0,7.052,8.058,0,17.999,0c9.94,0,17.999,7.052,17.999,15.75C35.998,24.449,27.939,31.5,17.999,31.5z M17.999,2.252
	c-8.698,0-15.749,6.044-15.749,13.5c0,4.571,2.686,8.568,6.75,11.005v5.868l6.75-3.374c0,0-0.332-0.001,2.25-0.001
	c8.696,0,15.749-6.044,15.749-13.499C33.748,8.296,26.695,2.252,17.999,2.252z M25.874,13.501H10.125
	C9.503,13.501,9,12.997,9,12.376s0.503-1.125,1.125-1.125h15.749c0.621,0,1.125,0.504,1.125,1.125S26.494,13.501,25.874,13.501z
	 M12.375,18.001h11.248c0.622,0,1.126,0.503,1.126,1.125c0,0.621-0.504,1.125-1.126,1.125H12.375c-0.622,0-1.125-0.504-1.125-1.125
	C11.25,18.504,11.752,18.001,12.375,18.001z"/>
</svg>
