<?xml version="1.0" encoding="utf-8"?>
<!-- Generator: Adobe Illustrator 16.0.0, SVG Export Plug-In . SVG Version: 6.00 Build 0)  -->
<!DOCTYPE svg PUBLIC "-//W3C//DTD SVG 1.1//EN" "http://www.w3.org/Graphics/SVG/1.1/DTD/svg11.dtd">
<svg version="1.1" id="Layer_1" xmlns="http://www.w3.org/2000/svg" xmlns:xlink="http://www.w3.org/1999/xlink" x="0px" y="0px"
	 width="42px" height="36px" viewBox="0 0 42 36" enable-background="new 0 0 42 36" xml:space="preserve">
<g>
	<path fill="#999999" d="M30.557,33.992c0-5.547-4.498-10.043-10.043-10.043c-5.547,0-10.044,4.496-10.044,10.043V36H8.461v-2.008
		c0-5.093,3.164-9.439,7.63-11.204c-2.754-1.55-4.617-4.496-4.617-7.879c0-4.993,4.047-9.041,9.04-9.041
		c4.992,0,9.039,4.048,9.039,9.041c0,3.383-1.863,6.329-4.617,7.879c4.466,1.764,7.63,6.11,7.63,11.204V36h-2.009V33.992z
		 M27.544,14.91c0-3.883-3.147-7.031-7.03-7.031s-7.03,3.147-7.03,7.031c0,3.882,3.147,7.03,7.03,7.03S27.544,18.792,27.544,14.91z"
		/>
	<path fill="#999999" d="M20.714,5.879c-0.063-0.001-0.125-0.01-0.189-0.01c0.032,0.066,0.066,0.131,0.097,0.198
		C20.651,6.004,20.684,5.942,20.714,5.879z"/>
	<path fill="#999999" d="M7.12,16.919c-2.753-1.549-4.873-4.495-4.873-7.878C2.247,4.048,6.167,0,11.159,0
		c3.581,0,6.411,1.77,7.859,4.767c-0.76,0.086-1.353,0.231-2.05,0.497c-1.255-1.922-3.456-3.253-5.921-3.253
		c-3.884,0-7.039,3.147-7.039,7.031c0,3.695,2.85,6.719,6.473,7.002c0.173,0.719,0.757,2.127,0.73,2.127
		C5.666,18.17,2,22.576,2,28.123v1.817H0v-1.817C0,23.03,2.654,18.684,7.12,16.919z"/>
	<path fill="#999999" d="M20.802,6.437c-0.061,0.027-0.12,0.066-0.18,0.098c0.563,0.294,1.108,0.761,1.475,1.155
		c0.188-0.538,0.457-1.034,0.762-1.502c-0.687-0.185-1.404-0.292-2.146-0.308c-0.03,0.063-0.063,0.125-0.092,0.188
		C20.679,6.193,20.75,6.308,20.802,6.437z"/>
	<path fill="#999999" d="M18.36,6.174c0.32,0.482,0.599,0.978,0.793,1.534c0.367-0.395,0.906-0.87,1.469-1.164
		c-0.061-0.032-0.12-0.076-0.181-0.103c0.052-0.128,0.124-0.21,0.181-0.335c-0.031-0.067-0.065-0.165-0.097-0.165
		c-0.004,0-0.008,0-0.011,0C19.77,5.94,19.051,6.004,18.36,6.174z"/>
	<path fill="#999999" d="M20.622,6.068c-0.057,0.125-0.129,0.24-0.181,0.369c0.061,0.027,0.12,0.066,0.181,0.098
		c0.061-0.032,0.12-0.071,0.18-0.098C20.75,6.308,20.679,6.193,20.622,6.068z"/>
	<path fill="#999999" d="M34.88,16.919c2.753-1.549,4.873-4.495,4.873-7.878c0-4.993-3.92-9.041-8.912-9.041
		c-3.581,0-6.411,1.77-7.859,4.767c0.76,0.086,1.353,0.231,2.05,0.497c1.255-1.922,3.456-3.253,5.921-3.253
		c3.884,0,7.039,3.147,7.039,7.031c0,3.695-2.85,6.719-6.473,7.002c-0.173,0.719-0.757,2.127-0.73,2.127
		c5.546,0,9.212,4.406,9.212,9.953v1.817h2v-1.817C42,23.03,39.346,18.684,34.88,16.919z"/>
</g>
</svg>
