<?xml version="1.0" encoding="utf-8"?>
<!-- Generator: Adobe Illustrator 16.0.0, SVG Export Plug-In . SVG Version: 6.00 Build 0)  -->
<!DOCTYPE svg PUBLIC "-//W3C//DTD SVG 1.1//EN" "http://www.w3.org/Graphics/SVG/1.1/DTD/svg11.dtd">
<svg version="1.1" id="Layer_1" xmlns="http://www.w3.org/2000/svg" xmlns:xlink="http://www.w3.org/1999/xlink" x="0px" y="0px"
	 width="28.8px" height="36px" viewBox="0 0 28.8 36" enable-background="new 0 0 28.8 36" xml:space="preserve">
<path fill="#999999" d="M26.4,33.602c0-6.629-5.374-12-12-12c-6.627,0-12,5.371-12,12V36H0v-2.398c0-6.086,3.78-11.278,9.117-13.387
	C5.826,18.363,3.6,14.844,3.6,10.801C3.6,4.836,8.435,0,14.4,0c5.964,0,10.8,4.836,10.8,10.801c0,4.043-2.226,7.562-5.517,9.414
	c5.336,2.108,9.117,7.301,9.117,13.387V36h-2.4V33.602z M22.8,10.801c0-4.64-3.76-8.4-8.4-8.4S6,6.162,6,10.801
	c0,4.638,3.76,8.4,8.4,8.4S22.8,15.439,22.8,10.801z"/>
</svg>
